<!--
Copyright 2023 Boštjan Mejak

Permission is hereby granted, free of charge, to any person obtaining a
copy of this software and associated documentation files (the
“Software”), to deal in the Software without restriction, including
without limitation the rights to use, copy, modify, merge, publish,
distribute, sublicense, and/or sell copies of the Software, and to
permit persons to whom the Software is furnished to do so, subject to
the following conditions:

The above copyright notice and this permission notice shall be included
in all copies or substantial portions of the Software.

THE SOFTWARE IS PROVIDED “AS IS”, WITHOUT WARRANTY OF ANY KIND, EXPRESS
OR IMPLIED, INCLUDING BUT NOT LIMITED TO THE WARRANTIES OF
MERCHANTABILITY, FITNESS FOR A PARTICULAR PURPOSE AND NONINFRINGEMENT.
IN NO EVENT SHALL THE AUTHORS OR COPYRIGHT HOLDERS BE LIABLE FOR ANY
CLAIM, DAMAGES OR OTHER LIABILITY, WHETHER IN AN ACTION OF CONTRACT,
TORT OR OTHERWISE, ARISING FROM, OUT OF OR IN CONNECTION WITH THE
SOFTWARE OR THE USE OR OTHER DEALINGS IN THE SOFTWARE.
-->


<svg xmlns="http://www.w3.org/2000/svg">
  <path d="M257.998 144.04906L167.997 16.046924c-5.654-8.062934-18.34-8.062934-23.994 0L54.002 144.04906c-7.399 10.500267-.355 25.593601 11.997 25.593601H111v304.003207c0 8.843734 6.709 16 15 16h60c8.291 0 14.8-7.156267 14.8-16V169.642661H246c12.363 0 19.389-15.104 11.998-25.593601zM436.003 351.871336h-45.201V85.867607c0-7.738267-6.509-14-14.8-14h-60.001c-8.291 0-15 6.261733-15 14v266.002796H256c-12.353 0-19.396 13.206666-11.997 22.3944l90.002 112.001865c5.989 7.472267 18.014 7.461067 23.994 0L448 374.265736c7.391-9.1784.365-22.3944-11.997-22.3944z"/>
</svg>
