<!--
Copyright 2023 Boštjan Mejak

Permission is hereby granted, free of charge, to any person obtaining a
copy of this software and associated documentation files (the
“Software”), to deal in the Software without restriction, including
without limitation the rights to use, copy, modify, merge, publish,
distribute, sublicense, and/or sell copies of the Software, and to
permit persons to whom the Software is furnished to do so, subject to
the following conditions:

The above copyright notice and this permission notice shall be included
in all copies or substantial portions of the Software.

THE SOFTWARE IS PROVIDED “AS IS”, WITHOUT WARRANTY OF ANY KIND, EXPRESS
OR IMPLIED, INCLUDING BUT NOT LIMITED TO THE WARRANTIES OF
MERCHANTABILITY, FITNESS FOR A PARTICULAR PURPOSE AND NONINFRINGEMENT.
IN NO EVENT SHALL THE AUTHORS OR COPYRIGHT HOLDERS BE LIABLE FOR ANY
CLAIM, DAMAGES OR OTHER LIABILITY, WHETHER IN AN ACTION OF CONTRACT,
TORT OR OTHERWISE, ARISING FROM, OUT OF OR IN CONNECTION WITH THE
SOFTWARE OR THE USE OR OTHER DEALINGS IN THE SOFTWARE.
-->


<svg xmlns="http://www.w3.org/2000/svg">
  <path d="M451.655,414.239H33.048C14.798,414.239,0,428.659,0,446.91c0,18.25,14.798,32.67,33.048,32.67h418.607c18.249,0,33.047-14.42,33.047-32.67C484.702,428.659,469.904,414.239,451.655,414.239z"/>
  <path d="M217.351,370.521c13.862,19.657,37.98,17.842,50.002,0c30.482-45.242,126.299-177.947,126.299-177.947c7.233-10.19,6.901-23.929-0.812-33.762c-7.716-9.834-20.983-13.421-32.602-8.819l-73.499,29.111l9.703-143.854c0.531-7.827-2.223-15.52-7.6-21.238c-5.376-5.712-12.887-8.935-20.729-8.889h-51.525c-7.844-0.046-15.354,3.176-20.73,8.889c-5.376,5.718-8.13,13.412-7.6,21.238l9.704,143.854l-73.499-29.111c-11.617-4.602-24.886-1.015-32.602,8.819c-7.713,9.833-8.045,23.571-0.811,33.762C91.052,192.573,185.911,325.939,217.351,370.521z"/>
</svg>
